HIERARCHY
ROOT hip
{
	OFFSET 0.000000 0.000000 0.000000
	CHANNELS 6 Xposition Yposition Zposition Xrotation Zrotation Yrotation 
	JOINT abdomen
	{
		OFFSET 0.000000 3.422050 0.000000
		CHANNELS 3 Xrotation Zrotation Yrotation 
		JOINT chest
		{
			OFFSET 0.000000 8.486693 -0.684411
			CHANNELS 3 Xrotation Zrotation Yrotation 
			JOINT neck
			{
				OFFSET 0.000000 10.266162 -0.273764
				CHANNELS 3 Xrotation Zrotation Yrotation 
				JOINT head
				{
					OFFSET 0.000000 3.148285 0.000000
					CHANNELS 3 Xrotation Zrotation Yrotation 
					End Site
					{
						OFFSET 0.000000 3.148289 0.000000
					}
				}
			}
			JOINT lCollar
			{
				OFFSET 3.422053 6.707223 -0.821293
				CHANNELS 3 Yrotation Zrotation Xrotation 
				JOINT lShldr
				{
					OFFSET 3.285171 0.000000 0.000000
					CHANNELS 3 Zrotation Yrotation Xrotation 
					JOINT lForeArm
					{
						OFFSET 10.129278 0.000000 0.000000
						CHANNELS 3 Yrotation Zrotation Xrotation 
						JOINT lHand
						{
							OFFSET 8.486692 0.000000 0.000000
							CHANNELS 3 Zrotation Yrotation Xrotation 
							End Site
							{
								OFFSET 4.106464 0.000000 0.000000
							}
						}
					}
				}
			}
			JOINT rCollar
			{
				OFFSET -3.558935 6.707223 -0.821293
				CHANNELS 3 Yrotation Zrotation Xrotation 
				JOINT rShldr
				{
					OFFSET -3.148289 0.000000 0.000000
					CHANNELS 3 Zrotation Yrotation Xrotation 
					JOINT rForeArm
					{
						OFFSET -10.266159 0.000000 0.000000
						CHANNELS 3 Yrotation Zrotation Xrotation 
						JOINT rHand
						{
							OFFSET -8.349810 0.000000 0.000000
							CHANNELS 3 Zrotation Yrotation Xrotation 
							End Site
							{
								OFFSET -4.106464 0.000000 0.000000
							}
						}
					}
				}
			}
		}
	}
	JOINT lThigh
	{
		OFFSET 5.338403 -1.642589 1.368821
		CHANNELS 3 Xrotation Zrotation Yrotation 
		JOINT lShin
		{
			OFFSET -2.053232 -20.121670 0.000000
			CHANNELS 3 Xrotation Zrotation Yrotation 
			JOINT lFoot
			{
				OFFSET 0.000000 -19.300380 -1.231939
				CHANNELS 3 Xrotation Yrotation Zrotation 
				End Site
				{
					OFFSET 0.000000 -2.463878 4.653993
				}
			}
		}
	}
	JOINT rThigh
	{
		OFFSET -5.338403 -1.642589 1.368821
		CHANNELS 3 Xrotation Zrotation Yrotation 
		JOINT rShin
		{
			OFFSET 2.053232 -20.121670 0.000000
			CHANNELS 3 Xrotation Zrotation Yrotation 
			JOINT rFoot
			{
				OFFSET 0.000000 -19.300380 -1.231939
				CHANNELS 3 Xrotation Yrotation Zrotation 
				End Site
				{
					OFFSET 0.000000 -2.463878 4.653993
				}
			}
		}
	}
}
MOTION
Frames: 10
Frame Time: 0.033315
0.000000 43.528500 0.000000 0.000000 0.000000 0.000000 0.000000 0.000000 0.000000 0.000000 0.000000 0.000000 0.000000 0.000000 0.000000 0.000000 0.000000 0.000000 0.000000 0.000000 0.000000 0.000000 0.000000 0.000000 0.000000 0.000000 0.000000 0.000000 0.000000 0.000000 0.000000 0.000000 0.000000 0.000000 0.000000 0.000000 0.000000 0.000000 0.000000 0.000000 0.000000 0.000000 0.000000 0.000000 0.000000 0.000000 0.000000 0.000000 0.000000 0.000000 0.000000 0.000000 0.000000 0.000000 0.000000 0.000000 0.000000 0.000000 0.000000 0.000000 
0.000000 7.889141 0.000000 0.000000 90.000000 0.000000 -0.153365 -19.184935 0.666103 0.082341 -26.472565 -1.228290 11.999502 16.996695 -25.001667 0.000000 0.000000 0.000000 -5.788524 -10.699446 -1.004971 -37.454208 -71.638771 33.823982 -77.374054 -3.262905 -0.007292 0.998433 0.000000 0.000000 -0.002182 7.999156 -0.194408 21.738039 -36.002834 16.550611 127.000404 -13.002916 59.001320 6.998672 -0.000720 10.597813 -38.128632 18.933180 72.021301 73.217453 -1.965634 -0.107515 40.093277 3.766102 8.075541 -28.119600 -5.532753 -0.181567 40.368015 2.347443 0.197853 42.445007 -3.548405 -7.632689 
0.000000 7.889141 0.000000 0.000000 90.000000 0.000000 -0.153365 -19.184937 0.666103 0.082341 -26.472565 -1.228290 11.951785 17.054169 -25.013458 0.000000 0.000000 0.000000 -5.788524 -10.699446 -1.004971 -37.423481 -71.391335 33.779030 -77.374054 -3.262905 -0.007292 0.998433 0.000000 0.000000 -0.002182 7.999156 -0.194408 21.738039 -36.002834 16.550611 127.000404 -13.002916 59.001320 6.998673 -0.000720 10.597814 -38.128632 18.933180 72.021301 73.217453 -1.965634 -0.107515 40.093277 3.766102 8.075541 -28.119600 -5.532753 -0.181567 40.368015 2.347443 0.197853 42.445007 -3.548406 -7.632689 
0.000000 7.889141 0.000000 0.000000 90.000000 0.000000 -0.153365 -19.184935 0.666103 0.082341 -26.472567 -1.228290 11.904037 17.111635 -25.025297 0.000000 0.000000 0.000000 -5.788525 -10.699447 -1.004971 -37.393711 -71.143639 33.735016 -77.374054 -3.262905 -0.007292 0.998433 0.000000 0.000000 -0.002182 7.999157 -0.194408 21.738043 -36.002834 16.550610 127.000404 -13.002915 59.001320 6.998673 -0.000721 10.597813 -38.128632 18.933180 72.021301 73.217453 -1.965634 -0.107515 40.093281 3.766102 8.075541 -28.119602 -5.532753 -0.181567 40.368019 2.347443 0.197853 42.445007 -3.548405 -7.632689 
0.000000 7.889141 0.000000 0.000000 90.000000 0.000000 -0.153365 -19.184935 0.666103 0.082341 -26.472563 -1.228289 11.856254 17.169092 -25.037193 0.000000 0.000000 0.000000 -5.788524 -10.699444 -1.004970 -37.364876 -70.895721 33.691902 -77.374054 -3.262905 -0.007292 0.998433 0.000000 0.000000 -0.002182 7.999156 -0.194408 21.738037 -36.002834 16.550610 127.000404 -13.002916 59.001320 6.998672 -0.000721 10.597813 -38.128632 18.933178 72.021294 73.217453 -1.965634 -0.107515 40.093277 3.766102 8.075540 -28.119600 -5.532753 -0.181567 40.368011 2.347443 0.197853 42.445007 -3.548405 -7.632689 
0.000000 7.889141 0.000000 0.000000 90.000000 0.000000 -0.153365 -19.184933 0.666103 0.082341 -26.472563 -1.228289 11.808441 17.226547 -25.049139 0.000000 0.000000 0.000000 -5.788524 -10.699446 -1.004971 -37.336941 -70.647560 33.649673 -77.374054 -3.262905 -0.007292 0.998432 0.000000 0.000000 -0.002182 7.999156 -0.194408 21.738037 -36.002834 16.550610 127.000389 -13.002917 59.001320 6.998672 -0.000720 10.597813 -38.128632 18.933180 72.021301 73.217453 -1.965634 -0.107515 40.093277 3.766101 8.075540 -28.119598 -5.532753 -0.181567 40.368011 2.347443 0.197853 42.445007 -3.548405 -7.632689 
0.000000 7.889141 0.000000 0.000000 90.000000 0.000000 -0.153365 -19.184935 0.666103 0.082341 -26.472565 -1.228290 11.760601 17.283998 -25.061150 0.000000 0.000000 0.000000 -5.788524 -10.699446 -1.004971 -37.309883 -70.399208 33.608295 -77.374054 -3.262905 -0.007292 0.998433 0.000000 0.000000 -0.002182 7.999155 -0.194408 21.738039 -36.002834 16.550611 127.000404 -13.002916 59.001320 6.998672 -0.000720 10.597812 -38.128632 18.933182 72.021301 73.217453 -1.965634 -0.107515 40.093277 3.766102 8.075541 -28.119600 -5.532753 -0.181567 40.368015 2.347443 0.197853 42.445007 -3.548405 -7.632689 
0.000000 7.889141 0.000000 0.000000 90.000000 0.000000 -0.153365 -19.184937 0.666103 0.082341 -26.472565 -1.228290 11.712727 17.341442 -25.073206 0.000000 0.000000 0.000000 -5.788525 -10.699447 -1.004971 -37.283619 -70.150543 33.567688 -77.374054 -3.262905 -0.007292 0.998433 0.000000 0.000000 -0.002182 7.999157 -0.194408 21.738039 -36.002834 16.550611 127.000404 -13.002916 59.001320 6.998672 -0.000720 10.597813 -38.128632 18.933180 72.021301 73.217453 -1.965634 -0.107515 40.093281 3.766102 8.075541 -28.119600 -5.532753 -0.181567 40.368015 2.347443 0.197853 42.445007 -3.548405 -7.632689 
0.000000 7.889141 0.000000 0.000000 90.000000 0.000000 -0.153365 -19.184937 0.666103 0.082341 -26.472567 -1.228290 11.664824 17.398882 -25.085320 0.000000 0.000000 0.000000 -5.788524 -10.699447 -1.004971 -37.258144 -69.901642 33.527847 -77.374069 -3.262905 -0.007292 0.998433 0.000000 0.000000 -0.002182 7.999157 -0.194408 21.738041 -36.002834 16.550613 127.000389 -13.002918 59.001320 6.998673 -0.000720 10.597814 -38.128635 18.933180 72.021309 73.217453 -1.965634 -0.107515 40.093277 3.766102 8.075541 -28.119600 -5.532753 -0.181567 40.368015 2.347443 0.197853 42.445007 -3.548406 -7.632689 
0.000000 7.889141 0.000000 0.000000 90.000000 0.000000 -0.153365 -19.184935 0.666103 0.082341 -26.472565 -1.228290 11.616888 17.456314 -25.097494 0.000000 0.000000 0.000000 -5.788524 -10.699444 -1.004970 -37.233471 -69.652534 33.488781 -77.374054 -3.262905 -0.007292 0.998432 0.000000 0.000000 -0.002182 7.999156 -0.194408 21.738039 -36.002831 16.550611 127.000404 -13.002916 59.001320 6.998672 -0.000721 10.597812 -38.128632 18.933180 72.021301 73.217445 -1.965634 -0.107515 40.093277 3.766102 8.075540 -28.119600 -5.532753 -0.181567 40.368015 2.347442 0.197853 42.445000 -3.548405 -7.632688 
